<?xml version="1.0" encoding="UTF-8"?>
<svg xmlns="http://www.w3.org/2000/svg" viewBox="0 0 24 24" width="24px" height="24px">
<g id="surface24493799">
<path style=" stroke:none;fill-rule:nonzero;fill:rgb(100%,100%,100%);fill-opacity:1;" d="M 16 3 C 13.285156 3 11.082031 5.195312 11.023438 7.894531 C 8.621094 7.609375 7.058594 6.710938 6.097656 5.824219 C 5.035156 4.84375 4.699219 3.972656 4.699219 3.972656 C 4.597656 3.722656 4.367188 3.542969 4.101562 3.507812 C 3.832031 3.472656 3.5625 3.582031 3.402344 3.800781 C 3.402344 3.800781 2.5 5 2.5 6.75 C 2.5 7.75 2.816406 8.492188 3.191406 9.117188 C 3.179688 9.113281 3.085938 9.078125 3.085938 9.078125 C 2.839844 8.957031 2.550781 8.976562 2.328125 9.128906 C 2.101562 9.285156 1.976562 9.546875 2.003906 9.816406 C 2.003906 9.816406 2.292969 11.929688 4.277344 13.46875 L 4.070312 13.523438 C 3.839844 13.578125 3.652344 13.738281 3.558594 13.957031 C 3.46875 14.171875 3.480469 14.417969 3.597656 14.621094 C 3.597656 14.621094 3.933594 15.191406 4.640625 15.789062 C 5.058594 16.144531 5.671875 16.511719 6.394531 16.851562 C 5.507812 17.175781 4.179688 17.5 2.25 17.5 C 1.957031 17.5 1.6875 17.671875 1.566406 17.941406 C 1.445312 18.207031 1.492188 18.523438 1.6875 18.742188 C 1.6875 18.742188 2.257812 19.375 3.390625 19.925781 C 4.523438 20.472656 6.269531 21 8.75 21 C 13.109375 21 16.242188 18.910156 18.199219 16.257812 C 20.152344 13.605469 21 10.429688 21 8 C 21 7.847656 20.992188 7.695312 20.976562 7.542969 C 22.03125 6.527344 22.429688 5.761719 22.445312 5.722656 C 22.542969 5.53125 22.507812 5.304688 22.359375 5.152344 C 22.210938 5 21.984375 4.957031 21.792969 5.046875 L 21.710938 5.082031 C 21.640625 5.113281 21.570312 5.148438 21.5 5.179688 C 21.703125 4.855469 21.863281 4.507812 21.976562 4.148438 C 22.039062 3.949219 21.972656 3.734375 21.808594 3.605469 C 21.644531 3.476562 21.417969 3.464844 21.242188 3.570312 C 20.628906 3.945312 20.042969 4.203125 19.433594 4.378906 C 18.535156 3.527344 17.328125 3 16 3 Z M 16 4.5 C 17.941406 4.5 19.5 6.058594 19.5 8 C 19.5 10.070312 18.722656 13.019531 16.992188 15.367188 C 15.257812 17.714844 12.640625 19.5 8.75 19.5 C 6.867188 19.5 5.613281 19.160156 4.675781 18.789062 C 5.660156 18.636719 6.507812 18.433594 7.113281 18.199219 C 8.167969 17.789062 8.738281 17.320312 8.738281 17.320312 C 8.949219 17.136719 9.042969 16.851562 8.980469 16.578125 C 8.914062 16.304688 8.703125 16.089844 8.433594 16.023438 C 7.070312 15.683594 6.195312 15.132812 5.648438 14.671875 L 6.433594 14.476562 C 6.75 14.398438 6.980469 14.121094 7 13.796875 C 7.019531 13.46875 6.824219 13.167969 6.519531 13.050781 C 4.898438 12.425781 4.214844 11.542969 3.867188 10.804688 C 4.292969 10.890625 4.6875 11 5.25 11 C 5.597656 11 5.898438 10.761719 5.980469 10.421875 C 6.058594 10.082031 5.894531 9.734375 5.585938 9.578125 C 5.585938 9.578125 4 8.851562 4 6.75 C 4 6.371094 4.105469 6.132812 4.179688 5.847656 C 4.441406 6.199219 4.65625 6.539062 5.082031 6.929688 C 6.367188 8.117188 8.496094 9.328125 11.710938 9.5 C 11.914062 9.511719 12.117188 9.4375 12.265625 9.292969 C 12.414062 9.152344 12.5 8.957031 12.5 8.75 L 12.5 8 C 12.5 6.058594 14.058594 4.5 16 4.5 Z M 16 4.5 "/>
</g>
</svg>
